<!-- src/assets/tashgeer_logo.svg -->
<svg xmlns="http://www.w3.org/2000/svg" viewBox="0 0 600 840">
  <path d="M474.68,192.89c-1.54,1.9-2.8,3.91-4.48,5.48c-54.96,51.14-106.02,106.24-160.16,158.22c-8.98,8.62-9.17,8.75-17.71,0.35c-29.91-29.45-59.45-59.29-89.12-88.97c-23.13-23.14-45.87-46.7-69.58-69.23c-5.7-5.42-7.29-8.11-1.17-13.69c7.39-6.75,14.34-14.03,21.15-21.39c4.67-5.05,10.06-5.91,13.77-0.56c12.51,18.01,31.56,29.21,45.87,45.38c16.99,19.2,35.25,37.27,52.99,55.81c8.62,9.01,18.8,16.32,26.66,26.27c6.94,8.78,7.85,8.34,16.44-0.23c33.25-33.15,66.39-66.42,99.59-99.63c9.36-9.36,18.84-18.6,28.18-27.98c3.06-3.07,6-3.75,9.24-0.47c8.46,8.55,16.93,17.09,25.31,25.72C472.83,189.16,473.48,190.89,474.68,192.89z" fill="#CC9929"/>
  <path d="M344.25,181.71c-13.29,9.39-23.3,22.28-35.21,33.14c-8.4,7.66-8.5,7.97-15.73,0.77c-29.39-29.25-58.69-58.59-87.89-88.02c-7.37-7.43-7.25-7.74,0.12-15.39c6.25-6.49,12.63-12.85,19.18-19.04c8.36-7.9,9.49-8.03,17.32-0.41c14.64,14.26,29.13,28.68,43.48,43.24c16.45,16.69,16.45,16.82,33.62-0.25c14.5-14.41,29.12-28.71,43.21-43.53c5.61-5.9,9.36-5.45,14.48,0.33c6.36,7.18,13.12,14.1,20.35,20.41c6.35,5.54,4.92,9.12-0.54,14.37c-16.04,15.42-31.51,31.43-47.28,47.14c-2.13,2.12-4.62,3.88-5.03,7.16L344.25,181.71z" fill="#CB9A27"/>
  <path d="M571.93,341.65c-2.98-1.85-3.18-4.98-3.33-7.93c-0.37-7.45-3.17-6.11-6.94-2.12c-1.24,1.31-2.62,2.49-3.9,3.77c-61.33,61.32-122.64,122.64-183.98,183.95c-21.72,21.71-43.67,43.21-65.15,65.15c-5.17,5.28-9.17,7.13-14.4,0.82c-1.15-1.39-2.56-2.56-3.83-3.84c-35.38-35.38-112.11-110.42-112.5-114.52c-22.27-18.96-41.84-40.71-62.91-60.92c-11.22-10.76-21.6-22.41-33.01-32.94c-5.76-5.32-7.13-11.01-4.96-17.74c4.03-12.47,8.21-24.93,13.03-37.11c3.31-8.36,4.81-8.57,11.01-2.4c23.85,23.7,47.63,47.46,71.19,71.45c14.26,14.52,29.71,27.89,42.62,43.73c4.36,2.44,7.7,5.89,10.21,10.18c0.66,2.18,40.53,39.47,43.94,42.81c9.04,8.86,18,17.82,26.86,26.87c3.77,3.85,7.06,3.94,10.54-0.27c1.53-1.85,3.39-3.42,5.1-5.12c72.36-72.47,144.73-144.93,217.07-217.41c14.6-14.63,14.49-14.64,3.92-31.36c-4.18-6.61-9.42-12.49-13.64-18.92c-4.38-6.67-6.9-4.44-10.82-0.52c-13.63,13.64-27.39,27.14-41.03,40.77c-52.01,51.97-104.05,103.92-155.95,156.01c-11.66,11.7-10.61,9.61-20.75-0.56c-24.69-24.77-49.44-49.47-74.16-74.21c-39.19-39.2-78.35-78.43-117.58-117.59c-10.16-10.14-10.09-9.91-19.33,2.04c-12.89,16.68-24.47,34.26-32.6,53.64c-11.15,26.58-20.15,53.86-21.39,83.17c-0.39,9.22,2.31,15.68,8.97,22.18c27.6,26.9,54.61,54.4,81.83,81.69c58.34,58.48,116.66,116.99,175.04,175.44c10.23,10.25,10.58,10.39,20.01,0.97c42.52-42.48,84.84-85.16,127.33-127.68c27.93-27.95,56.02-55.76,84.08-83.58c1.24-1.23,3.39-3.11,4.37-2.74c2.59,0.99,1.84,3.86,1.43,5.96c-8.86,44.6-27.61,84.32-59.77,116.86c-52.53,53.16-105.48,105.9-158.26,158.82c-1.7,1.7-3.37,3.43-5.05,5.16c-2.5,2.56-5.18,2.81-7.86,0.4c-2.68-2.41-5.29-4.93-7.84-7.48c-45.95-46.06-91.9-92.12-137.83-138.2c-38.26-38.4-76.46-76.86-114.81-115.17c-1.7-1.7-3.52-5.51-6.66-3.34c-1.09,0.76-0.66,4.57-0.07,6.77c11.4,42.87,30.08,81.85,59.23,115.88c14.48,16.91,31.85,31,45.3,48.78c2.36,1.79,4.96,3.32,7.04,5.4c25.99,25.93,51.87,51.97,77.83,77.93c24.25,24.25,48.51,48.51,72.88,72.64c8.52,8.43,8.77,8.36,16.83,0.47c12.89-12.61,25.72-25.27,38.45-38.04c51.8-51.97,104.35-103.22,155.1-156.2c51.13-53.39,76.21-118.06,76.96-192.24C579.99,387.6,575.3,364.75,571.93,341.65z" fill="#046C44"/>
  <path d="M333.57,50.74c-1.37,1.86-2.55,3.91-4.16,5.56c-7.56,7.77-15.38,15.29-22.81,23.18c-4.4,4.68-7.91,4.25-11.77-0.49c-2.65-3.25-5.82-6.09-8.55-9.29c-5.72-6.7-17.85-11.41-16.4-19.68c1.31-7.42,11.17-13.47,17.56-19.83c13.4-13.34,13.5-13.28,27.39,0.28c5.17,5.05,10.25,10.2,15.28,15.39C331.32,47.12,332.16,48.73,333.57,50.74z" fill="#0B6C46"/>
</svg>